<svg xmlns="http://www.w3.org/2000/svg" aria-hidden="true" style="position:absolute;width:0;height:0;overflow:hidden">
  <defs>
    <symbol id="instagram" viewBox="0 0 32 32">
      <path fill="#4d5ae5" d="M32 16c0 4.418-1.791 8.418-4.686 11.314S20.419 32 16 32c-4.418 0-8.418-1.791-11.314-4.686S0 20.419 0 16c0-4.418 1.791-8.418 4.686-11.314S11.581 0 16 0c4.418 0 8.418 1.791 11.314 4.686S32 11.581 32 16z" style="fill:var(--color1, #4d5ae5)"/>
      <path fill="#f4f4fd" d="M22.387 13.363c-.03-.68-.14-1.148-.298-1.553a3.136 3.136 0 0 0-.74-1.135 3.153 3.153 0 0 0-1.133-.738c-.408-.158-.873-.268-1.553-.298-.685-.033-.903-.04-2.641-.04s-1.955.008-2.638.038c-.68.03-1.148.14-1.553.298-.43.163-.815.413-1.135.74-.325.32-.578.708-.738 1.133-.158.408-.268.873-.298 1.553-.032.685-.04.903-.04 2.641s.008 1.955.038 2.638c.03.68.14 1.148.298 1.553.162.43.415.815.74 1.135.32.325.708.578 1.133.738.408.158.873.268 1.553.298.683.03.9.038 2.638.038s1.955-.007 2.638-.038c.68-.03 1.148-.14 1.553-.298a3.278 3.278 0 0 0 1.873-1.873c.157-.408.268-.873.298-1.553.03-.683.038-.9.038-2.638s-.003-1.955-.033-2.638zm-1.152 5.226c-.028.625-.133.963-.22 1.188-.215.558-.658 1-1.215 1.215-.225.088-.565.192-1.188.22-.675.03-.878.038-2.585.038s-1.913-.007-2.586-.038c-.625-.027-.963-.132-1.188-.22a1.966 1.966 0 0 1-.735-.478 1.998 1.998 0 0 1-.478-.735c-.088-.225-.193-.565-.22-1.188-.03-.675-.038-.878-.038-2.586s.007-1.913.038-2.585c.027-.625.132-.963.22-1.188.103-.278.265-.53.48-.735.207-.212.458-.375.735-.478.225-.088.565-.192 1.188-.22.675-.03.878-.038 2.586-.038 1.71 0 1.913.008 2.586.038.625.028.963.133 1.188.22.277.102.53.265.735.478.212.208.375.458.478.735.088.225.192.565.22 1.188.03.675.038.878.038 2.585s-.008 1.908-.038 2.583z" style="fill:var(--color2, #f4f4fd)"/>
      <path fill="#f4f4fd" d="M16.024 12.713a3.29 3.29 0 0 0 0 6.576 3.29 3.29 0 0 0 0-6.576zm0 5.421a2.133 2.133 0 1 1 0-4.266 2.133 2.133 0 0 1 0 4.266zM20.21 12.583a.768.768 0 1 1-1.536 0 .768.768 0 0 1 1.536 0z" style="fill:var(--color2, #f4f4fd)"/>
    </symbol>
    <symbol id="twitter" viewBox="0 0 32 32">
      <path fill="#4d5ae5" d="M32 16c0 4.418-1.791 8.418-4.686 11.314S20.419 32 16 32c-4.418 0-8.418-1.791-11.314-4.686S0 20.419 0 16c0-4.418 1.791-8.418 4.686-11.314S11.581 0 16 0c4.418 0 8.418 1.791 11.314 4.686S32 11.581 32 16z" style="fill:var(--color1, #4d5ae5)"/>
      <path fill="#f4f4fd" d="M22.4 12.031a5.455 5.455 0 0 1-1.512.414 2.608 2.608 0 0 0 1.154-1.45 5.245 5.245 0 0 1-1.664.635 2.623 2.623 0 0 0-4.539 1.795c0 .208.018.408.061.598a7.426 7.426 0 0 1-5.409-2.745 2.628 2.628 0 0 0 .807 3.507 2.591 2.591 0 0 1-1.186-.323v.029c0 1.275.91 2.334 2.102 2.578a2.636 2.636 0 0 1-.688.086c-.168 0-.338-.01-.497-.045a2.65 2.65 0 0 0 2.452 1.828 5.275 5.275 0 0 1-3.882 1.083 7.384 7.384 0 0 0 4.026 1.178c4.829 0 7.469-4 7.469-7.467a6.24 6.24 0 0 0-.01-.339c.521-.37.958-.831 1.315-1.362z" style="fill:var(--color2, #f4f4fd)"/>
    </symbol>
    <symbol id="facebook" viewBox="0 0 32 32">
      <path fill="#4d5ae5" d="M32 16c0 4.418-1.791 8.418-4.686 11.314S20.419 32 16 32c-4.418 0-8.418-1.791-11.314-4.686S0 20.419 0 16c0-4.418 1.791-8.418 4.686-11.314S11.581 0 16 0c4.418 0 8.418 1.791 11.314 4.686S32 11.581 32 16z" style="fill:var(--color1, #4d5ae5)"/>
      <path fill="#f4f4fd" d="M18.132 11.725h1.169V9.69a15.04 15.04 0 0 0-1.702-.09c-1.685 0-2.839 1.06-2.839 3.008V14.4h-1.859v2.275h1.859V22.4h2.279v-5.724h1.784l.283-2.275h-2.068v-1.567c0-.658.178-1.108 1.094-1.108z" style="fill:var(--color2, #f4f4fd)"/>
    </symbol>
    <symbol id="linkedin" viewBox="0 0 32 32">
      <path fill="#4d5ae5" d="M32 16c0 4.418-1.791 8.418-4.686 11.314S20.419 32 16 32c-4.418 0-8.418-1.791-11.314-4.686S0 20.419 0 16c0-4.418 1.791-8.418 4.686-11.314S11.581 0 16 0c4.418 0 8.418 1.791 11.314 4.686S32 11.581 32 16z" style="fill:var(--color1, #4d5ae5)"/>
      <path fill="#f4f4fd" d="M22.397 22.4v-.001h.003v-4.694c0-2.297-.494-4.066-3.179-4.066-1.291 0-2.157.708-2.51 1.38h-.037v-1.165h-2.546V22.4h2.651v-4.231c0-1.114.211-2.192 1.591-2.192 1.36 0 1.38 1.272 1.38 2.263v4.161h2.648zM9.811 13.854h2.654V22.4H9.811v-8.546zM11.137 9.6c-.849 0-1.537.689-1.537 1.537s.688 1.551 1.537 1.551 1.537-.703 1.537-1.551c0-.849-.689-1.537-1.537-1.537z" style="fill:var(--color2, #f4f4fd)"/>
    </symbol>
    <symbol id="person-black" viewBox="0 0 32 32">
      <path d="M16 16c2.947 0 5.333-2.387 5.333-5.333S18.946 5.334 16 5.334c-2.947 0-5.333 2.387-5.333 5.333S13.054 16 16 16zm0 2.667c-3.56 0-10.667 1.787-10.667 5.333v1.333c0 .733.6 1.333 1.333 1.333h18.667c.733 0 1.333-.6 1.333-1.333V24c0-3.547-7.107-5.333-10.667-5.333z"/>
    </symbol>
    <symbol id="phone-black" viewBox="0 0 32 32">
      <path d="m23.635 18.487-2.451-.28a1.92 1.92 0 0 0-1.582.55l-1.775 1.775a14.514 14.514 0 0 1-6.359-6.359l1.785-1.785c.415-.415.618-.994.55-1.582l-.28-2.432a1.931 1.931 0 0 0-1.92-1.708H9.934c-1.09 0-1.997.907-1.93 1.997.511 8.24 7.102 14.821 15.332 15.332 1.09.068 1.997-.839 1.997-1.93v-1.669a1.913 1.913 0 0 0-1.698-1.911z"/>
    </symbol>
    <symbol id="email-black" viewBox="0 0 32 32">
      <path d="M24 8H8c-1.1 0-1.99.9-1.99 2L6 22c0 1.1.9 2 2 2h16c1.1 0 2-.9 2-2V10c0-1.1-.9-2-2-2zm-.4 4.25-7.07 4.42c-.32.2-.74.2-1.06 0L8.4 12.25a.85.85 0 1 1 .9-1.44L16 15l6.7-4.19a.85.85 0 1 1 .9 1.44z"/>
    </symbol>
    <symbol id="close-black" viewBox="0 0 32 32">
      <path d="M32 3.223 28.777 0 16 12.777 3.223 0 0 3.223 12.777 16 0 28.777 3.223 32 16 19.223 28.777 32 32 28.777 19.223 16 32 3.223z"/>
    </symbol>
    <symbol id="icon-send" viewBox="0 0 32 32">
      <path fill="#fff" d="m32 2.667-32 15 10.227 3.156L26 8.5 14.002 21.988l.01.003-.012-.003v7.345l5.735-5.576L27 25.999l5-23.333z" style="fill:var(--color3, #fff)"/>
    </symbol>
  </defs>
</svg>

